# xmcd
#
# Track frame offsets:
#        182
#        18817
#        36962
#        60675
#        79445
#        100142
#        120617
#        141742
#
# Disc length: 2190 seconds
#
# Revision: 0
# Processed by: cddbd v1.5.1PL0 Copyright (c) Steve Scherf et al.
# Submitted via: ExactAudioCopy v0.95b1
#
DISCID=6d088c08
DTITLE=44 MAGNUM - THE LIVE and FOUR FIGURES
DYEAR=1995
DGENRE=Rock
TTITLE0=STREET ROCK'N ROLLER
TTITLE1=I GIVE YOU MY LOVE
TTITLE2=YOUR HERT
TTITLE3=VICTORY OATH
TTITLE4=25 MILES
TTITLE5=PARALLEL ZONE
TTITLE6=JEALOUS NIGHT
TTITLE7=THIS ONE'S FOR YOU
EXTD=
EXTT0=
EXTT1=
EXTT2=
EXTT3=
EXTT4=
EXTT5=
EXTT6=
EXTT7=
PLAYORDER=
